<?xml version="1.0" encoding="UTF-8"?>
<svg version="1.1" xmlns="http://www.w3.org/2000/svg" width="500" height="500">
<path d="M0 0 C0.6544855 -0.00205263 1.308971 -0.00410527 1.98328939 -0.0062201 C4.17968621 -0.01188132 6.37602015 -0.01043394 8.57242298 -0.00901413 C10.161785 -0.01159827 11.75114638 -0.01461157 13.34050685 -0.01801753 C17.71091472 -0.02608504 22.08130616 -0.02787696 26.4517206 -0.028615 C31.16421059 -0.03046598 35.87669206 -0.03801355 40.58917713 -0.04475021 C50.89500777 -0.05833226 61.20083452 -0.06435805 71.50667262 -0.06876087 C77.9416641 -0.07152349 84.37665409 -0.07576088 90.81164455 -0.08026505 C108.62822055 -0.09245751 126.44479535 -0.10275689 144.26137543 -0.10614014 C145.40168214 -0.1063597 146.54198886 -0.10657927 147.71685033 -0.10680549 C148.85988516 -0.10702377 150.00291999 -0.10724204 151.18059224 -0.10746694 C153.49681548 -0.1079104 155.81303873 -0.10835697 158.12926197 -0.10880661 C159.27818866 -0.10902804 160.42711535 -0.10924947 161.610858 -0.10947761 C180.22739875 -0.11342559 198.84390036 -0.13087971 217.460426 -0.15416613 C236.57366388 -0.17788089 255.68688212 -0.19034204 274.80013496 -0.19150805 C285.53154114 -0.19242474 296.26289631 -0.19817547 306.99428844 -0.21632767 C316.13237123 -0.2317303 325.27038725 -0.23684813 334.40848055 -0.22858956 C339.06994284 -0.22468367 343.73127067 -0.22560977 348.39271641 -0.23964691 C352.66327804 -0.25238925 356.93360423 -0.25118539 361.20416556 -0.2390562 C362.74590881 -0.23709979 364.28766877 -0.24017508 365.82938858 -0.24890056 C380.57138234 -0.32702581 390.977418 2.28113592 402.07188892 12.25642776 C409.47719283 19.98970551 412.75124199 29.88053079 412.59532642 40.38924026 C411.85540039 50.00827876 408.28521374 59.39396378 401.27501392 66.17049026 C389.09529719 76.04026072 377.13668172 77.43369037 361.88065052 77.39212418 C360.30575976 77.39514769 358.73087046 77.39903818 357.15598375 77.40371674 C352.84405859 77.41397976 348.53221675 77.41181925 344.22028482 77.40753615 C339.56371918 77.40506583 334.90717344 77.41408691 330.25061512 77.42157364 C321.13377605 77.43431436 312.01696645 77.43611509 302.90011998 77.43377338 C295.48815312 77.43198928 288.07619519 77.43374182 280.66422939 77.43799782 C279.60872548 77.43859301 278.55322157 77.4391882 277.4657327 77.43980142 C275.32136128 77.44101319 273.17698986 77.44222733 271.03261844 77.4434438 C250.92830831 77.45431702 230.82401496 77.45215793 210.71970389 77.44605895 C192.33756044 77.44089055 173.95547 77.45214362 155.57333704 77.47115717 C136.68822191 77.49054088 117.80313186 77.4987906 98.91800672 77.49503392 C88.31962166 77.49312262 77.72128171 77.49560253 67.12290478 77.50974846 C58.09988804 77.52167003 49.07694418 77.52305844 40.05392643 77.51095829 C35.45294948 77.50507496 30.85210576 77.50395508 26.25113773 77.51596069 C22.0336699 77.52683744 17.81644626 77.52369491 13.59898976 77.50969901 C12.07886702 77.507057 10.55872503 77.50940294 9.03862121 77.51743487 C-4.09891564 77.58199521 -15.01919519 76.35898421 -25.61561108 68.13142776 C-26.66748608 67.40955276 -27.71936108 66.68767776 -28.80311108 65.94392776 C-36.40045157 58.34658728 -39.5184885 48.71303557 -39.92811108 38.19392776 C-39.61944562 26.46464057 -34.1092026 16.78182009 -25.74061108 8.76814651 C-17.89995715 2.72911343 -9.77397729 0.01045541 0 0 Z " fill="#070707" transform="translate(63.61561107635498,58.86857223510742)"/>
<path d="M0 0 C1.58156498 -0.00373929 3.16312811 -0.00834193 4.74468833 -0.01373065 C9.0797412 -0.02594166 13.41471678 -0.02570242 17.74978292 -0.02334189 C22.429565 -0.02293324 27.10932245 -0.03397751 31.78909302 -0.04345703 C40.95385986 -0.06005785 50.11860098 -0.06556617 59.2833816 -0.06668179 C66.73493322 -0.06763275 74.18647635 -0.07174543 81.63802528 -0.07808304 C102.77452169 -0.09569335 123.91099779 -0.1049223 145.04750159 -0.10342209 C146.75610309 -0.10330222 146.75610309 -0.10330222 148.4992218 -0.10317993 C149.63968383 -0.10309817 150.78014585 -0.10301641 151.95516733 -0.10293217 C170.43371056 -0.10211945 188.91217225 -0.12125425 207.3906919 -0.14945666 C226.37409207 -0.1782005 245.35745249 -0.19199612 264.34087497 -0.19026911 C274.99465651 -0.18960571 285.64835257 -0.19507638 296.30211449 -0.21662521 C305.37381593 -0.23485677 314.44539315 -0.23916815 323.51710501 -0.22560637 C328.14254172 -0.21908656 332.76774025 -0.21892373 337.39315414 -0.23631287 C341.63421311 -0.25209253 345.87484601 -0.24913035 350.11589489 -0.2317446 C351.64346973 -0.22868543 353.17107676 -0.23226596 354.69861361 -0.24346475 C367.67983687 -0.33226871 379.67445298 1.19917772 389.5473175 10.26742554 C390.17380188 10.8152771 390.80028625 11.36312866 391.445755 11.92758179 C398.72912308 18.67314842 401.91788976 26.70117952 402.7348175 36.52133179 C403.06822677 48.50322708 398.9406852 57.81014494 390.7973175 66.57992554 C379.9644042 76.81330738 367.22405695 77.56650563 353.09463501 77.53485107 C351.51307003 77.53859037 349.9315069 77.543193 348.34994668 77.54858172 C344.01489381 77.56079273 339.67991822 77.56055349 335.34485209 77.55819297 C330.66507001 77.55778432 325.98531255 77.56882858 321.30554199 77.57830811 C312.14077515 77.59490893 302.97603403 77.60041725 293.81125341 77.60153286 C286.35970179 77.60248382 278.90815866 77.60659651 271.45660973 77.61293411 C250.32011332 77.63054442 229.18363722 77.63977337 208.04713342 77.63827316 C206.33853192 77.6381533 206.33853192 77.6381533 204.59541321 77.63803101 C203.45495118 77.63794924 202.31448916 77.63786748 201.13946768 77.63778324 C182.66092445 77.63697052 164.18246276 77.65610533 145.70394311 77.68430774 C126.72054294 77.71305157 107.73718252 77.72684719 88.75376004 77.72512019 C78.0999785 77.72445678 67.44628244 77.72992746 56.79252052 77.75147629 C47.72081908 77.76970784 38.64924186 77.77401922 29.57753 77.76045744 C24.95209329 77.75393764 20.32689476 77.75377481 15.70148087 77.77116394 C11.4604219 77.7869436 7.219789 77.78398142 2.97874012 77.76659568 C1.45116528 77.7635365 -0.07644175 77.76711703 -1.6039786 77.77831583 C-16.15036801 77.87782702 -27.98462172 75.53275189 -38.57377625 65.19711304 C-46.56214179 56.7836785 -49.79478818 48.18488511 -49.60112 36.62289429 C-48.89007745 25.33977179 -44.02934041 17.00390807 -35.91362 9.27914429 C-25.15696774 0.48600792 -13.27900176 -0.02974934 0 0 Z " fill="#070707" transform="translate(73.45268249511719,358.7325744628906)"/>
<path d="M0 0 C1.25579317 -0.00668677 1.25579317 -0.00668677 2.53695589 -0.01350862 C3.4516288 -0.01332426 4.36630171 -0.01313989 5.30869198 -0.01294994 C6.28440102 -0.01662663 7.26011006 -0.02030332 8.26538604 -0.02409142 C11.54398172 -0.03512896 14.82254571 -0.03897225 18.10115719 -0.04278088 C20.44840248 -0.04904553 22.79564677 -0.05569233 25.14288998 -0.0626936 C32.86001043 -0.08373803 40.57713109 -0.09409705 48.29427242 -0.10406017 C50.9512594 -0.10810773 53.60824628 -0.11222465 56.26523304 -0.11641026 C67.31858553 -0.13342164 78.37193703 -0.14791423 89.4253006 -0.155159 C92.29251322 -0.15706878 95.15972584 -0.15898913 98.02693844 -0.16094494 C98.73953856 -0.16142868 99.45213869 -0.16191242 100.18633275 -0.16241082 C111.7214467 -0.17070525 123.25645676 -0.1960326 134.79152537 -0.22852562 C146.64440727 -0.26164058 158.49723645 -0.27961181 170.35016483 -0.28280324 C177.00102668 -0.28496438 183.65175438 -0.29410094 190.30257511 -0.31926441 C196.56279963 -0.34256702 202.82275209 -0.34676931 209.08300877 -0.33650303 C211.37629508 -0.33600808 213.66959489 -0.34231632 215.96284008 -0.35605907 C231.45297016 -0.44366625 244.02118845 -0.16863074 255.79036617 11.13422108 C264.30979438 20.4989622 267.15344241 29.19338469 266.99739742 41.79047108 C266.33479024 52.49220214 261.31282653 61.20447639 253.47786617 68.44672108 C247.19761078 73.44819144 239.69675398 77.24832512 231.58073235 77.26844215 C230.32493918 77.27512892 230.32493918 77.27512892 229.04377645 77.28195077 C228.12910354 77.28176641 227.21443064 77.28158205 226.27204037 77.2813921 C225.29633133 77.28506879 224.32062228 77.28874547 223.3153463 77.29253358 C220.03675062 77.30357111 216.75818664 77.30741441 213.47957516 77.31122303 C211.13232987 77.31748768 208.78508558 77.32413448 206.43784237 77.33113575 C198.72072192 77.35218018 191.00360126 77.36253921 183.28645992 77.37250233 C180.62947294 77.37654988 177.97248607 77.38066681 175.31549931 77.38485241 C164.26214682 77.40186379 153.20879531 77.41635638 142.15543175 77.42360115 C139.28821912 77.42551093 136.4210065 77.42743128 133.55379391 77.42938709 C132.48489372 77.4301127 132.48489372 77.4301127 131.39439959 77.43085297 C119.85928564 77.4391474 108.32427559 77.46447475 96.78920697 77.49696777 C84.93632508 77.53008274 73.0834959 77.54805397 61.23056751 77.55124539 C54.57970567 77.55340654 47.92897796 77.56254309 41.27815723 77.58770657 C35.01793271 77.61100918 28.75798025 77.61521146 22.49772358 77.60494518 C20.20443726 77.60445023 17.91113746 77.61075848 15.61789227 77.62450123 C0.80857847 77.70825793 -11.16959478 77.54727129 -22.91666508 67.46234608 C-30.70253141 59.55710531 -35.00081999 49.82734551 -35.64713383 38.75922108 C-35.179066 27.40348852 -30.25173194 16.59099462 -21.95963383 8.88422108 C-15.66379561 3.85035488 -8.15196175 0.02020612 0 0 Z " fill="#080808" transform="translate(59.20963382720947,208.86577892303467)"/>
<path d="M0 0 C-1.39750048 3.15835107 -3.05198234 5.32272825 -5.5 7.75 C-6.41265625 8.67039062 -6.41265625 8.67039062 -7.34375 9.609375 C-9 11 -9 11 -11 11 C-11 11.99 -11 12.98 -11 14 C-11.66 14 -12.32 14 -13 14 C-11.6145759 9.76090342 -9.67287988 7.29341975 -6.5 4.1875 C-5.7059375 3.39730469 -4.911875 2.60710937 -4.09375 1.79296875 C-2 0 -2 0 0 0 Z " fill="#525252" transform="translate(42,366)"/>
</svg>
