<?xml version="1.0" standalone="no"?>
<!DOCTYPE svg PUBLIC "-//W3C//DTD SVG 20010904//EN"
 "http://www.w3.org/TR/2001/REC-SVG-20010904/DTD/svg10.dtd">
<svg version="1.0" xmlns="http://www.w3.org/2000/svg"
 width="500.000000pt" height="500.000000pt" viewBox="0 0 500.000000 500.000000"
 preserveAspectRatio="xMidYMid meet">

<g transform="translate(0.000000,500.000000) scale(0.100000,-0.100000)"
fill="#000000" stroke="none">
<path d="M2611 3829 c-528 -59 -981 -320 -1067 -615 -55 -190 74 -373 334
-472 233 -90 523 -89 725 2 50 22 167 103 167 115 0 3 -60 7 -133 7 -156 2
-249 23 -372 83 -125 61 -195 144 -180 212 20 89 284 218 563 275 275 56 460
25 517 -87 23 -43 18 -134 -10 -214 -29 -82 -25 -88 55 -79 133 15 280 84 354
165 72 80 83 157 37 256 -74 156 -274 283 -533 339 -89 19 -342 26 -457 13z"/>
<path d="M2885 3278 c-10 -32 -26 -100 -23 -103 8 -8 109 -8 118 1 5 5 13 28
18 51 9 41 9 42 -19 47 -16 4 -43 9 -59 12 -20 4 -31 1 -35 -8z"/>
<path d="M2675 3263 c-109 -24 -365 -120 -365 -137 0 -10 95 -47 155 -61 81
-18 195 -29 195 -19 0 5 13 57 29 117 19 70 25 107 18 106 -7 -1 -21 -3 -32
-6z"/>
<path d="M3401 2919 c-96 -33 -207 -49 -274 -42 -43 5 -48 3 -74 -28 -66 -81
-108 -114 -273 -209 -41 -24 -76 -45 -78 -46 -6 -4 -42 -177 -42 -202 0 -35
58 -56 135 -49 181 18 342 102 495 257 89 91 136 160 177 260 36 89 32 92 -66
59z"/>
<path d="M1469 2688 c-117 -140 -189 -281 -189 -367 0 -84 77 -184 177 -231
58 -27 133 -42 138 -26 2 6 14 44 25 85 35 119 92 241 182 389 l20 32 -58 26
c-54 24 -155 86 -216 134 l-27 21 -52 -63z"/>
<path d="M1857 2513 c-34 -53 -99 -184 -94 -189 2 -2 19 1 38 6 39 12 245 40
289 40 l28 0 -15 -57 c-43 -167 -56 -360 -29 -459 19 -71 63 -149 105 -186 84
-74 231 -118 395 -118 l98 0 -42 43 c-61 59 -96 119 -127 212 -26 77 -27 88
-27 295 0 174 4 235 21 319 l20 103 -36 -6 c-93 -17 -234 -24 -326 -16 -95 8
-219 30 -257 45 -12 5 -23 -4 -41 -32z"/>
</g>
</svg>
